<mxfile host="app.diagrams.net" modified="2023-08-31T02:40:17.336Z" agent="Mozilla/5.0 (Macintosh; Intel Mac OS X 10_15_7) AppleWebKit/537.36 (KHTML, like Gecko) Chrome/116.0.0.0 Safari/537.36 Edg/116.0.1938.62" version="21.6.8" etag="UR_fO0VAxox5i4WyDwZx" type="github">
  <diagram name="第 1 页" id="xggjDeZYWxUOke382XEO">
    <mxGraphModel>
      <root>
        <mxCell id="0" />
        <mxCell id="1" parent="0" />
      </root>
    </mxGraphModel>
  </diagram>
</mxfile>
